<?xml version="1.0" encoding="UTF-8"?> <svg xmlns="http://www.w3.org/2000/svg" xmlns:xlink="http://www.w3.org/1999/xlink" width="448.027" height="77.09" viewBox="0 0 448.027 77.09"><defs><clipPath id="a"><rect width="448.027" height="77.09" fill="none"></rect></clipPath></defs><g clip-path="url(#a)"><path d="M55.944,73.5h0c-18.64-17.26-35.89,9.635-54.626,2.237-.6-.236-1.4-.715-1.311-1.224a1.62,1.62,0,0,1,2.014-1.294c10.048,3.646,19.65-2.057,28.284-6.193,8.48-4.064,21.044-4.872,26.01,5.043.3.6.851,1.227.384,1.21s-.179.755-.755.22m60.832,2.223c1.608-.637.9-3.059-.752-2.481-10.25,3.609-19.689-2.092-28.361-6.21-8.278-3.935-20.343-4.9-25.557,4.312-.458.806-1.189,1.886-.216,1.679.8-.171.4.247,1.093-.33,18.727-15.659,34.988,10.464,53.794,3.03M4.621,72.408C22,76,37.712,52.045,54.936,67.156c1.343,1.176,2.266.879,1.085-.55C40.87,48.251,22.874,72.833,6.357,68.729a3.1,3.1,0,0,0-3.323.9C1.6,71.217,3.125,72.1,4.621,72.408M113.37,72.4c1.545-.321,3.088-1.15,1.619-2.783a3.074,3.074,0,0,0-3.35-.88c-16.719,4.1-34.285-20.509-49.868-2.108-.587.7.245,1.021.47,1.135s-.048,0,.617-.578C80.5,52,95.8,76.043,113.37,72.4M10.122,49.33c.313-1.23-.282-1.181-.739,0C6.617,56.461,3.743,62.778.96,69.682c5.947-5.575,7.217-12.7,9.161-20.352m106.1,18.91c-2.359-6.048-4.81-11.226-7.117-17.291-.339-.894-.854-.853-.658.057,1.385,6.415,2.587,12.877,7.775,17.234M7.8,67.545c16.073,2.061,30.145-18.52,46.43-5.295.623.506.47.544.7.524s.948-.467.4-1.093C40.932,45.317,24.985,67.8,9.514,63.573a3.021,3.021,0,0,0-2.906,1.1C5.1,66.114,6.263,67.347,7.8,67.545m102.232-.018c.825-.111,2.322-.222,2.3-1.068-.02-.709-1.007-.978-1.179-1.762-.31-1.418-2.39-1.3-3.6-1.044C92.6,66.865,76.15,45.081,62.477,61.96c-1.176,1.451.347,1.187,1.691.086,15.655-12.819,30.326,7.572,45.861,5.48M57.935,62.62c.421-10.74,0-20.421.241-30.864-4.73-5.978-13.343-9.336-20.575-6.375-7.564,3.1-13.367,9.447-22.086,9.336-1.253,4.465-2.317,8.774-3.424,13.172-1.159,4.618-2.5,9.172-3.44,13.805,9.655,2.7,17.516-3.027,25.818-6.534,8.255-3.489,19.075-.879,23.468,7.461m51.146-1.082a64.452,64.452,0,0,0-3.341-13.019c-13.676,4.965-31.431-5.55-42.569,8.441-.839,1.055-.853,1.833.251.9,15.606-13.184,29.835,8.219,45.659,3.676M61.331,51.276c6.425-10.352,19.559-12.233,27.1-21.1a16.129,16.129,0,0,0,3.8-7.239c.405-2.273,1.7-5.228.4-7.186-2.678-4.035-7.191-7.06-10.478-10.8C80.912,3.537,79.3,2.527,78,.956,77.161-.068,75.84-.538,75.886.936c.094,2.97-.694,4.906-1.616,7.381-2.175,5.836-7.082,9.029-10.8,13.946-6.275,8.284-2.735,19.1-3.794,28.969-.14,1.3.93,1.221,1.661.045m5.205.382c7.254-5.64,16.026-4.743,24.266-3.767a31.362,31.362,0,0,0,12.159-.466,12.135,12.135,0,0,0,5.689-3.193c1.388-1.451-.4-3.518-.9-5.225-.612-2.085-1.56-4.517-2.322-6.5-.341-.885-.669-2.673-1.526-2.177-.788.456-1.142,1.431-1.778,2.177-3.27,3.851-7.728,6.079-12.276,8.054C81.945,44,73.441,45.4,66.378,51.137c-1.2.973-1.105,1.5.159.521m-1.815-1.341c8.981-7.694,20.452-8.375,30.221-14.129a28.115,28.115,0,0,0,6.938-6.069c2.054-2.31.089-4.818-1.423-7.091-3.19-4.793-5.954-9.868-9.09-14.675-.486-.746-.934-1.667-1.385-2.236-.4-.506-.957-1.986-1.476-1.594-1.016.766-1.933,2.7-.933,3.845,1.779,2.034,4.75,3.375,6.03,5.7,2.2,3.989.956,9.238-1.3,13.569C86.638,38.51,72.577,40.654,64.577,49.564c-.84.934-.87,1.62.145.752m35.887-31.388c-.765-1.361-.381-3.525-1.738-3.429-1.54.108.109,2.285.823,3.622.495.925,1.516.877.914-.193" transform="translate(0 0)" fill="#00445d"></path><path d="M252.169,29.507a9.058,9.058,0,0,0-1.23-2.043,5.11,5.11,0,0,0-3.945-2.307,27.4,27.4,0,0,0-8.9,1.381,25.735,25.735,0,0,0-8.665,4.891c-2.965,2.479-6.337,6.039-6.386,10.248a6.194,6.194,0,0,0,2.216,4.756,8.13,8.13,0,0,0,5.578,1.953c5.537-.062,10.185-2.234,14.437-5.37,3.549-2.616,7.37-6.4,7.385-11.207a5.674,5.674,0,0,0-.489-2.3m-6,5.254c-1.147,3.158-4.541,5.877-4.571,5.905-1.918,1.677-4.9,3.953-7.726,4-2.493.045-4.434-1.435-4.4-4.038.049-3.216,1.892-5.793,4-7.983a16.869,16.869,0,0,1,3.384-2.746,8.444,8.444,0,0,1,4.434-1.332c2.377-.02,5.305,1.318,5.238,4.123a6.69,6.69,0,0,1-.365,2.068" transform="translate(120.844 13.63)" fill="#00445d" fill-rule="evenodd"></path><path d="M252.169,29.507a9.058,9.058,0,0,0-1.23-2.043,5.11,5.11,0,0,0-3.945-2.307,27.4,27.4,0,0,0-8.9,1.381,25.735,25.735,0,0,0-8.665,4.891c-2.965,2.479-6.337,6.039-6.386,10.248a6.194,6.194,0,0,0,2.216,4.756,8.13,8.13,0,0,0,5.578,1.953c5.537-.062,10.185-2.234,14.437-5.37,3.549-2.616,7.37-6.4,7.385-11.207a5.674,5.674,0,0,0-.489-2.3m-6,5.254c-1.147,3.158-4.541,5.877-4.571,5.905-1.918,1.677-4.9,3.953-7.726,4-2.493.045-4.434-1.435-4.4-4.038.049-3.216,1.892-5.793,4-7.983a16.869,16.869,0,0,1,3.384-2.746,8.444,8.444,0,0,1,4.434-1.332c2.377-.02,5.305,1.318,5.238,4.123a6.69,6.69,0,0,1-.365,2.068" transform="translate(120.844 13.63)" fill="#00445d"></path><path d="M278.509,50.842a11.234,11.234,0,0,1-1.607.666,6.383,6.383,0,0,1-1.862.321,10.732,10.732,0,0,1-4.485-1.212,25.423,25.423,0,0,1-4.394-2.843q-3.714-3.166-7.408-6.357a57.2,57.2,0,0,0,7.715-5.884,46.134,46.134,0,0,0,4.883-4.858,14.657,14.657,0,0,0,1.992-3l-.321-.45a2.466,2.466,0,0,0-1.089-.856,3.309,3.309,0,0,0-1.3-.231,4.839,4.839,0,0,0-1.306.156l-1.647.493a40.574,40.574,0,0,1-6.361,8.4c-1.841,1.884-5.19,5-8.293,4.784q2.583-10,4.693-20.11c.481-2.387.615-3.068.965-5.469a9.96,9.96,0,0,0,.018-2.354h-1.793a5.1,5.1,0,0,0-2.2.5,8.856,8.856,0,0,0-2.2,1.523,50.559,50.559,0,0,1-.453,6.827,60.783,60.783,0,0,1-1.371,6.9q-.865,3.259-1.958,6.448-1.147,3.374-2.416,6.705-2.775,7.116-5.509,14.249h2.34l2.99-1.546,4.279-7.916a5.725,5.725,0,0,1,.994-1.363l.037-.032a.267.267,0,0,1,.131-.071,6.608,6.608,0,0,1,2.539.962A26.517,26.517,0,0,1,256.753,47l7.242,5.46a23.377,23.377,0,0,0,3.634,1.972,14.346,14.346,0,0,0,2.142.725,10.6,10.6,0,0,0,2.586.339,10.21,10.21,0,0,0,2.3-.264,17.426,17.426,0,0,0,2.293-.671,37.443,37.443,0,0,0,4.2-1.887l1.961-4.235-2.27,1.133q-1.189.592-2.331,1.269" transform="translate(130.468 6.522)" fill="#00445d" fill-rule="evenodd"></path><path d="M278.509,50.842a11.234,11.234,0,0,1-1.607.666,6.383,6.383,0,0,1-1.862.321,10.732,10.732,0,0,1-4.485-1.212,25.423,25.423,0,0,1-4.394-2.843q-3.714-3.166-7.408-6.357a57.2,57.2,0,0,0,7.715-5.884,46.134,46.134,0,0,0,4.883-4.858,14.657,14.657,0,0,0,1.992-3l-.321-.45a2.466,2.466,0,0,0-1.089-.856,3.309,3.309,0,0,0-1.3-.231,4.839,4.839,0,0,0-1.306.156l-1.647.493a40.574,40.574,0,0,1-6.361,8.4c-1.841,1.884-5.19,5-8.293,4.784q2.583-10,4.693-20.11c.481-2.387.615-3.068.965-5.469a9.96,9.96,0,0,0,.018-2.354h-1.793a5.1,5.1,0,0,0-2.2.5,8.856,8.856,0,0,0-2.2,1.523,50.559,50.559,0,0,1-.453,6.827,60.783,60.783,0,0,1-1.371,6.9q-.865,3.259-1.958,6.448-1.147,3.374-2.416,6.705-2.775,7.116-5.509,14.249h2.34l2.99-1.546,4.279-7.916a5.725,5.725,0,0,1,.994-1.363l.037-.032a.267.267,0,0,1,.131-.071,6.608,6.608,0,0,1,2.539.962A26.517,26.517,0,0,1,256.753,47l7.242,5.46a23.377,23.377,0,0,0,3.634,1.972,14.346,14.346,0,0,0,2.142.725,10.6,10.6,0,0,0,2.586.339,10.21,10.21,0,0,0,2.3-.264,17.426,17.426,0,0,0,2.293-.671,37.443,37.443,0,0,0,4.2-1.887l1.961-4.235-2.27,1.133q-1.189.592-2.331,1.269" transform="translate(130.468 6.522)" fill="#00445d"></path><path d="M297.825,23.633A44.688,44.688,0,0,0,283.86,25.9c-2.16.692-5.628,2.009-6.924,4.115a3.321,3.321,0,0,0,.154,3.708,6.672,6.672,0,0,0,1.366,1.445,15.987,15.987,0,0,0,3.3,1.966l8.842,3.486c.772.31,3.942,1.711,4.155,2.9a12.915,12.915,0,0,1-4.061,1.351,41.26,41.26,0,0,1-8.193.979,28.2,28.2,0,0,1-7.108-.914l-1.576-.444a10.2,10.2,0,0,1-1.372-.52,4.067,4.067,0,0,1,.242-.893,3.025,3.025,0,0,1,.254-.669l1.015-1.884-2.051.611a9.124,9.124,0,0,0-2.937,1.5,3.922,3.922,0,0,0-.945,1.047,2.515,2.515,0,0,0-.185,2.55c.7,1.092,2.587,1.711,3.927,2.078a25.665,25.665,0,0,0,6.718,1,61.569,61.569,0,0,0,12.56-1.4,23.727,23.727,0,0,0,7.8-2.727,3.948,3.948,0,0,0,2.044-3.187,2.956,2.956,0,0,0-.754-1.966,6.62,6.62,0,0,0-1.4-1.261,17.557,17.557,0,0,0-3.193-1.7l-.026-.009q-4.376-1.624-8.725-3.312a16.443,16.443,0,0,1-2.515-1.3,5.758,5.758,0,0,1-1.085-.877,1.215,1.215,0,0,1-.316-1.605c1-1.476,4.79-2.074,6.363-2.24,1.432-.151,5.54-.355,7.028.093l.737,1.4a23.043,23.043,0,0,0,6.053-2.842V24.372a13.539,13.539,0,0,0-2.877-.632q-1.175-.109-2.356-.106" transform="translate(144.968 12.804)" fill="#00445d" fill-rule="evenodd"></path><path d="M297.825,23.633A44.688,44.688,0,0,0,283.86,25.9c-2.16.692-5.628,2.009-6.924,4.115a3.321,3.321,0,0,0,.154,3.708,6.672,6.672,0,0,0,1.366,1.445,15.987,15.987,0,0,0,3.3,1.966l8.842,3.486c.772.31,3.942,1.711,4.155,2.9a12.915,12.915,0,0,1-4.061,1.351,41.26,41.26,0,0,1-8.193.979,28.2,28.2,0,0,1-7.108-.914l-1.576-.444a10.2,10.2,0,0,1-1.372-.52,4.067,4.067,0,0,1,.242-.893,3.025,3.025,0,0,1,.254-.669l1.015-1.884-2.051.611a9.124,9.124,0,0,0-2.937,1.5,3.922,3.922,0,0,0-.945,1.047,2.515,2.515,0,0,0-.185,2.55c.7,1.092,2.587,1.711,3.927,2.078a25.665,25.665,0,0,0,6.718,1,61.569,61.569,0,0,0,12.56-1.4,23.727,23.727,0,0,0,7.8-2.727,3.948,3.948,0,0,0,2.044-3.187,2.956,2.956,0,0,0-.754-1.966,6.62,6.62,0,0,0-1.4-1.261,17.557,17.557,0,0,0-3.193-1.7l-.026-.009q-4.376-1.624-8.725-3.312a16.443,16.443,0,0,1-2.515-1.3,5.758,5.758,0,0,1-1.085-.877,1.215,1.215,0,0,1-.316-1.605c1-1.476,4.79-2.074,6.363-2.24,1.432-.151,5.54-.355,7.028.093l.737,1.4a23.043,23.043,0,0,0,6.053-2.842V24.372a13.539,13.539,0,0,0-2.877-.632q-1.175-.109-2.356-.106" transform="translate(144.968 12.804)" fill="#00445d"></path><path d="M127.456,49.218a14.942,14.942,0,0,1-2.194,1.665c-1.179.728-2.775,1.311-4.107.561a4.974,4.974,0,0,1-1.9-2.333,3.642,3.642,0,0,1-.265-1.341A24.483,24.483,0,0,1,119.337,44q.338-2,.8-3.979.957-3.945,2.188-7.818a149.378,149.378,0,0,1,7.823-20.1h-2.226l-6.084,2.8-4.571,13.933q-.988-.294-2-.5a13.446,13.446,0,0,0-2.666-.247c-6.306.025-11.432,3.523-15.639,7.811a28.411,28.411,0,0,0-6.03,8.4,10.646,10.646,0,0,0-.7,6.545c.483,2.3,2.018,4.046,4.317,4a11.486,11.486,0,0,0,2.749-.353,16.324,16.324,0,0,0,2.781-.981,26.878,26.878,0,0,0,5.077-3.07l7.552-6.34a23.457,23.457,0,0,0-.231,3.1c-.06,5.131,2.393,8.66,7.919,8.613,4.03-.035,7.529-2.462,10.213-5.281a31.208,31.208,0,0,0,2.929-3.461,18.161,18.161,0,0,0,2.5-4.667l.35-.971-2.088-.416q-1.522,2.149-3.162,4.208a34.22,34.22,0,0,1-3.69,3.989m-11.91-14.636a2.755,2.755,0,0,1-.341,1.1q-.37.694-.8,1.352a30.475,30.475,0,0,1-1.933,2.509,35.463,35.463,0,0,1-10.827,8.811,10.257,10.257,0,0,1-4.369,1.138.863.863,0,0,1-.555-.19,1.959,1.959,0,0,1-.516-.755c-.8-2.18-.066-4.752,1.022-6.668a23.789,23.789,0,0,1,3.2-4.342,20.218,20.218,0,0,1,4.275-3.671c2.792-1.767,6.355-2.444,9.4-.837.577.3,1.383.8,1.445,1.551" transform="translate(48.766 6.558)" fill="#00445d" fill-rule="evenodd"></path><path d="M127.456,49.218a14.942,14.942,0,0,1-2.194,1.665c-1.179.728-2.775,1.311-4.107.561a4.974,4.974,0,0,1-1.9-2.333,3.642,3.642,0,0,1-.265-1.341A24.483,24.483,0,0,1,119.337,44q.338-2,.8-3.979.957-3.945,2.188-7.818a149.378,149.378,0,0,1,7.823-20.1h-2.226l-6.084,2.8-4.57,13.933q-.99-.294-2-.5a13.446,13.446,0,0,0-2.666-.247c-6.306.025-11.432,3.523-15.639,7.811a28.411,28.411,0,0,0-6.03,8.4,10.646,10.646,0,0,0-.7,6.545c.483,2.3,2.018,4.046,4.317,4a11.486,11.486,0,0,0,2.749-.353,16.324,16.324,0,0,0,2.781-.981,26.878,26.878,0,0,0,5.077-3.07l7.552-6.34a23.457,23.457,0,0,0-.231,3.1c-.06,5.131,2.393,8.66,7.92,8.613,4.029-.035,7.527-2.462,10.211-5.281a31.208,31.208,0,0,0,2.929-3.461,18.161,18.161,0,0,0,2.5-4.667l.35-.971-2.088-.416q-1.522,2.149-3.162,4.208a34.22,34.22,0,0,1-3.69,3.989m-11.91-14.636a2.731,2.731,0,0,1-.341,1.1q-.37.694-.8,1.352a30.475,30.475,0,0,1-1.933,2.509,35.463,35.463,0,0,1-10.827,8.811,10.257,10.257,0,0,1-4.369,1.138.863.863,0,0,1-.555-.19,1.959,1.959,0,0,1-.516-.755c-.8-2.18-.066-4.752,1.022-6.668a23.789,23.789,0,0,1,3.2-4.342,20.218,20.218,0,0,1,4.275-3.671c2.792-1.767,6.355-2.444,9.4-.837.577.3,1.383.8,1.445,1.551" transform="translate(48.766 6.558)" fill="#00445d"></path><path d="M156.942,49.218a14.941,14.941,0,0,1-2.194,1.665c-1.18.728-2.775,1.311-4.107.561a4.974,4.974,0,0,1-1.9-2.333,3.641,3.641,0,0,1-.265-1.341A24.481,24.481,0,0,1,148.823,44q.338-2,.8-3.979.957-3.945,2.188-7.818a149.38,149.38,0,0,1,7.823-20.1h-2.226l-6.084,2.8-4.57,13.933q-.99-.294-2-.5a13.446,13.446,0,0,0-2.666-.247c-6.306.025-11.432,3.523-15.639,7.811a28.412,28.412,0,0,0-6.03,8.4,10.646,10.646,0,0,0-.7,6.545c.483,2.3,2.018,4.046,4.317,4a11.486,11.486,0,0,0,2.749-.353,16.325,16.325,0,0,0,2.781-.981,26.879,26.879,0,0,0,5.077-3.07L142.2,44.1a23.462,23.462,0,0,0-.231,3.1c-.06,5.131,2.393,8.66,7.919,8.613,4.03-.035,7.529-2.462,10.213-5.281a31.2,31.2,0,0,0,2.929-3.461,18.161,18.161,0,0,0,2.5-4.667l.35-.971-2.088-.416q-1.522,2.149-3.162,4.208a34.216,34.216,0,0,1-3.69,3.989m-11.91-14.636a2.755,2.755,0,0,1-.341,1.1q-.37.694-.8,1.352a30.481,30.481,0,0,1-1.933,2.509,35.464,35.464,0,0,1-10.827,8.811,10.257,10.257,0,0,1-4.369,1.138.863.863,0,0,1-.555-.19,1.959,1.959,0,0,1-.517-.755c-.8-2.18-.066-4.752,1.022-6.668a23.787,23.787,0,0,1,3.2-4.342,20.218,20.218,0,0,1,4.275-3.671c2.792-1.767,6.355-2.444,9.4-.837.577.3,1.383.8,1.445,1.551" transform="translate(64.742 6.558)" fill="#00445d" fill-rule="evenodd"></path><path d="M156.942,49.218a14.941,14.941,0,0,1-2.194,1.665c-1.18.728-2.775,1.311-4.107.561a4.974,4.974,0,0,1-1.9-2.333,3.641,3.641,0,0,1-.265-1.341A24.481,24.481,0,0,1,148.823,44q.338-2,.8-3.979.957-3.945,2.188-7.818a149.38,149.38,0,0,1,7.823-20.1h-2.226l-6.084,2.8-4.57,13.933q-.99-.294-2-.5a13.446,13.446,0,0,0-2.666-.247c-6.306.025-11.432,3.523-15.639,7.811a28.412,28.412,0,0,0-6.03,8.4,10.646,10.646,0,0,0-.7,6.545c.483,2.3,2.018,4.046,4.317,4a11.486,11.486,0,0,0,2.749-.353,16.325,16.325,0,0,0,2.781-.981,26.879,26.879,0,0,0,5.077-3.07L142.2,44.1a23.462,23.462,0,0,0-.231,3.1c-.06,5.131,2.393,8.66,7.92,8.613,4.029-.035,7.527-2.462,10.211-5.281a31.2,31.2,0,0,0,2.929-3.461,18.161,18.161,0,0,0,2.5-4.667l.35-.971-2.088-.416q-1.522,2.149-3.162,4.208a34.216,34.216,0,0,1-3.69,3.989m-11.91-14.636a2.755,2.755,0,0,1-.341,1.1q-.37.694-.8,1.352a30.481,30.481,0,0,1-1.933,2.509,35.464,35.464,0,0,1-10.827,8.811,10.257,10.257,0,0,1-4.369,1.138.863.863,0,0,1-.555-.19,1.959,1.959,0,0,1-.517-.755c-.8-2.18-.066-4.752,1.022-6.668a23.787,23.787,0,0,1,3.2-4.342,20.218,20.218,0,0,1,4.275-3.671c2.792-1.767,6.355-2.444,9.4-.837.577.3,1.383.8,1.445,1.551" transform="translate(64.742 6.558)" fill="#00445d"></path><path d="M178.51,27.309a2.228,2.228,0,0,1-1.292-.455,6.062,6.062,0,0,1-1.3-1.338,13.487,13.487,0,0,0-1-1.238,3.278,3.278,0,0,0-2.177-1.311,6.03,6.03,0,0,0-3.43,1.423,29.335,29.335,0,0,0-5.307,5.9,10.016,10.016,0,0,0-.156-3.426c-.751-3.36-3.845-4.417-6.809-4.359a12.861,12.861,0,0,0-3.455.546,22.991,22.991,0,0,0-3.477,1.272l-.068.032a3.408,3.408,0,0,0-.857.819l-.294.41a2.162,2.162,0,0,0-.382.988l-.059,1.287q1.811-.574,3.579-1.266l-.009,0c1.2-.472,2.891-1.007,4.161-.41a2.264,2.264,0,0,1,.991.951,6.146,6.146,0,0,1,.657,1.906,13.186,13.186,0,0,1,.193,2.311,34.7,34.7,0,0,1-1.278,8.409l0,.009a69.13,69.13,0,0,1-3.235,9.575l.933.282a4.428,4.428,0,0,0,1.278.193,5.917,5.917,0,0,0,2.783-.717l1.566-.939q1.087-2.59,2.214-5.162c1.075-2.464,5.384-12.1,8.195-14.834a8.025,8.025,0,0,0,1.892,1.915c1.957,1.442,4.186,1.411,6.411.8a16.159,16.159,0,0,0,2.869-1.076,17.938,17.938,0,0,0,4.485-3.079L186.4,24l-1.118.153a2.192,2.192,0,0,0-.55.151l-.342.146-.623.313-1.087.609-1.9,1.159a4.375,4.375,0,0,1-2.266.78" transform="translate(80.428 12.194)" fill="#00445d" fill-rule="evenodd"></path><path d="M178.51,27.309a2.228,2.228,0,0,1-1.292-.455,6.062,6.062,0,0,1-1.3-1.338,13.487,13.487,0,0,0-1-1.238,3.278,3.278,0,0,0-2.177-1.311,6.03,6.03,0,0,0-3.43,1.423,29.335,29.335,0,0,0-5.307,5.9,10.016,10.016,0,0,0-.156-3.426c-.751-3.36-3.845-4.417-6.809-4.359a12.861,12.861,0,0,0-3.455.546,22.991,22.991,0,0,0-3.477,1.272l-.068.032a3.408,3.408,0,0,0-.857.819l-.294.41a2.162,2.162,0,0,0-.382.988l-.059,1.287q1.811-.574,3.579-1.266l-.009,0c1.2-.472,2.891-1.007,4.161-.41a2.264,2.264,0,0,1,.991.951,6.146,6.146,0,0,1,.657,1.906,13.186,13.186,0,0,1,.193,2.311,34.7,34.7,0,0,1-1.278,8.409l0,.009a69.13,69.13,0,0,1-3.235,9.575l.933.282a4.428,4.428,0,0,0,1.278.193,5.917,5.917,0,0,0,2.783-.717l1.566-.939q1.087-2.59,2.214-5.162c1.075-2.464,5.384-12.1,8.195-14.834a8.025,8.025,0,0,0,1.892,1.915c1.957,1.442,4.186,1.411,6.411.8a16.159,16.159,0,0,0,2.869-1.076,17.938,17.938,0,0,0,4.485-3.079L186.4,24l-1.118.153a2.192,2.192,0,0,0-.55.151l-.342.146-.623.311-1.087.611-1.9,1.159a4.375,4.375,0,0,1-2.266.78" transform="translate(80.428 12.194)" fill="#00445d"></path><path d="M215.26,37.5a16.975,16.975,0,0,0-.173-2.533,8.306,8.306,0,0,0-.959-2.954,6.03,6.03,0,0,0-5.648-2.862,13.112,13.112,0,0,0-4.883.984,19.318,19.318,0,0,0-4.59,2.68l-4.425,4.044q.8-2.174,1.54-4.371a84.036,84.036,0,0,0,2.613-9.9,49.859,49.859,0,0,0,.944-9.864l0-.888h-1.756l-5.179,2.877-1.534,9.872q-1.117,6.506-2.854,12.883-.907,3.307-2.032,6.547a76.365,76.365,0,0,1-3.193,7.792l.552.436a16.373,16.373,0,0,0,5.2,2.754,18.346,18.346,0,0,0,3.982.774,41.238,41.238,0,0,0,4.14.187c5.191-.006,9.319-2.361,12.771-5.941,3.4-3.528,5.5-7.723,5.486-12.516m-6.651,6.543a12.963,12.963,0,0,1-2.579,4.858,11,11,0,0,1-3.377,2.71,10.214,10.214,0,0,1-4.608,1.035,7.855,7.855,0,0,1-2.06-.341q-1.129-.333-2.222-.768l-3.392-1.378a24.178,24.178,0,0,1,2.192-4.789,44.359,44.359,0,0,1,3.787-5.419l.011-.014a28,28,0,0,1,3.91-4.052,13.082,13.082,0,0,1,2.431-1.619,6.873,6.873,0,0,1,3-.785,2.675,2.675,0,0,1,1.579.48,3.97,3.97,0,0,1,1.235,1.611,8.076,8.076,0,0,1,.748,3.466,18,18,0,0,1-.658,5" transform="translate(99.221 6.414)" fill="#00445d" fill-rule="evenodd"></path><path d="M215.26,37.5a16.975,16.975,0,0,0-.173-2.533,8.306,8.306,0,0,0-.959-2.954,6.03,6.03,0,0,0-5.648-2.862,13.112,13.112,0,0,0-4.883.984,19.318,19.318,0,0,0-4.59,2.68l-4.425,4.044q.8-2.174,1.54-4.371a84.036,84.036,0,0,0,2.613-9.9,49.859,49.859,0,0,0,.944-9.864l0-.888h-1.756l-5.179,2.877-1.534,9.872q-1.117,6.506-2.854,12.883-.907,3.307-2.032,6.547a76.365,76.365,0,0,1-3.193,7.792l.552.436a16.373,16.373,0,0,0,5.2,2.754,18.346,18.346,0,0,0,3.982.774,41.238,41.238,0,0,0,4.14.187c5.191-.006,9.319-2.361,12.771-5.941,3.4-3.528,5.5-7.723,5.486-12.516m-6.651,6.543a12.963,12.963,0,0,1-2.579,4.858,11,11,0,0,1-3.377,2.71,10.214,10.214,0,0,1-4.608,1.035,7.855,7.855,0,0,1-2.06-.341q-1.129-.333-2.222-.768l-3.392-1.378a24.178,24.178,0,0,1,2.192-4.789,44.359,44.359,0,0,1,3.787-5.419l.011-.014a28,28,0,0,1,3.91-4.052,13.082,13.082,0,0,1,2.431-1.619,6.873,6.873,0,0,1,3-.785,2.675,2.675,0,0,1,1.579.48,3.97,3.97,0,0,1,1.235,1.611,8.076,8.076,0,0,1,.748,3.466,18,18,0,0,1-.658,5" transform="translate(99.221 6.414)" fill="#00445d"></path><path d="M232.653,29.507a9.059,9.059,0,0,0-1.23-2.043,5.11,5.11,0,0,0-3.945-2.307,27.4,27.4,0,0,0-8.9,1.381,25.735,25.735,0,0,0-8.665,4.891c-2.965,2.479-6.337,6.039-6.386,10.248a6.194,6.194,0,0,0,2.216,4.756,8.13,8.13,0,0,0,5.578,1.953c5.537-.062,10.185-2.234,14.437-5.37,3.549-2.616,7.37-6.4,7.385-11.207a5.674,5.674,0,0,0-.489-2.3m-6,5.254c-1.147,3.158-4.541,5.877-4.571,5.905-1.918,1.677-4.9,3.953-7.726,4-2.493.045-4.434-1.435-4.4-4.038.049-3.216,1.892-5.793,4-7.983a16.87,16.87,0,0,1,3.384-2.746,8.444,8.444,0,0,1,4.434-1.332c2.377-.02,5.305,1.318,5.238,4.123a6.689,6.689,0,0,1-.365,2.068" transform="translate(110.271 13.63)" fill="#00445d" fill-rule="evenodd"></path><path d="M232.653,29.507a9.059,9.059,0,0,0-1.23-2.043,5.11,5.11,0,0,0-3.945-2.307,27.4,27.4,0,0,0-8.9,1.381,25.735,25.735,0,0,0-8.665,4.891c-2.965,2.479-6.337,6.039-6.386,10.248a6.194,6.194,0,0,0,2.216,4.756,8.13,8.13,0,0,0,5.578,1.953c5.537-.062,10.185-2.234,14.437-5.37,3.549-2.616,7.37-6.4,7.385-11.207a5.674,5.674,0,0,0-.489-2.3m-6,5.254c-1.147,3.158-4.541,5.877-4.571,5.905-1.918,1.677-4.9,3.953-7.726,4-2.493.045-4.434-1.435-4.4-4.038.049-3.216,1.89-5.793,4-7.983a16.87,16.87,0,0,1,3.384-2.746,8.444,8.444,0,0,1,4.434-1.332c2.377-.02,5.305,1.318,5.238,4.123a6.689,6.689,0,0,1-.365,2.068" transform="translate(110.271 13.63)" fill="#00445d"></path></g></svg> 