<svg width="82" height="86" viewBox="0 0 82 86" fill="none" xmlns="http://www.w3.org/2000/svg">
<g clip-path="url(#clip0_20_3933)">
<path d="M65.1317 38.184C65.4094 38.184 65.6575 38.0848 65.846 37.9063C66.0344 37.7277 66.1733 37.4599 66.2428 37.1722L66.3122 36.9043C66.1237 37.0729 65.7864 37.1622 65.4094 37.2118C64.8737 37.2713 64.5166 37.3606 64.5166 37.7277C64.5166 38.0154 64.7944 38.1741 65.1317 38.1741V38.184Z" fill="#6A6D6F"/>
<path d="M58.207 42.2217C57.8896 42.2217 57.463 42.2912 57.2051 42.4003L56.3221 46.5968C56.4709 46.6563 56.7487 46.696 56.9868 46.696C58.465 46.696 59.467 45.1285 59.467 43.5015C59.467 42.6384 59.0602 42.2217 58.207 42.2217Z" fill="#6A6D6F"/>
<path d="M61.719 36.5868C61.957 36.5868 62.1257 36.4975 62.2547 36.3487C62.3836 36.19 62.4729 35.9618 62.5324 35.7039L62.8499 34.2257C62.7904 34.186 62.711 34.1662 62.6217 34.1662C61.7685 34.1662 61.213 35.1979 61.213 35.9519C61.213 36.3685 61.3816 36.5967 61.719 36.5967V36.5868Z" fill="#6A6D6F"/>
<path d="M50.4789 36.6067C50.7269 36.6067 50.9253 36.4677 51.0939 36.2594C51.4015 35.8725 51.5503 35.2674 51.5503 34.8507C51.5503 34.4638 51.4015 34.196 51.0146 34.196C50.7666 34.196 50.5582 34.3348 50.3896 34.5432C50.082 34.9301 49.9332 35.5352 49.9332 35.9519C49.9332 36.3388 50.092 36.6067 50.4789 36.6067Z" fill="#6A6D6F"/>
<path d="M57.8797 36.5868C58.1177 36.5868 58.2765 36.4975 58.4154 36.3487C58.5444 36.19 58.6336 35.9618 58.6932 35.7039L59.0106 34.2158C58.961 34.186 58.8221 34.1662 58.713 34.1662C57.959 34.1662 57.3439 35.0888 57.3439 35.942C57.3439 36.3587 57.5523 36.5868 57.8797 36.5868Z" fill="#6A6D6F"/>
<path d="M68.2567 42.946C68.2567 42.5194 67.9888 42.2317 67.5027 42.2317C66.4709 42.2317 65.6674 43.3031 65.3995 44.2059C65.5979 44.2654 66.0642 44.3249 66.3816 44.3249C67.5622 44.3249 68.2567 43.7892 68.2567 42.946Z" fill="#6A6D6F"/>
<path d="M0.101807 62.6682H40.1812V35.6345C35.0423 35.813 30.2705 36.5273 25.5383 37.7972C23.4947 45.0591 22.076 52.7872 21.4312 59.7317C21.2427 59.8111 20.6078 59.9003 20.2606 59.9003C18.6435 59.9003 17.7209 59.2555 17.7209 57.7277C17.7209 54.0075 19.1792 46.2495 21.0244 39.1761C18.7824 39.94 16.5205 40.8428 14.2387 41.8547C13.1871 46.3289 12.4332 50.9817 12.0661 55.5353C11.8578 55.6345 11.2824 55.7138 10.9252 55.7138C9.62562 55.7138 8.73277 54.8507 8.73277 53.3924C8.73277 50.9221 9.21887 47.4797 9.953 43.8983C8.01848 44.8805 6.05419 45.942 4.05022 47.0928C3.85181 46.7059 3.78236 46.19 3.83196 45.8924C3.89149 45.4559 4.15934 44.5333 5.19109 43.7991C7.19506 42.3606 8.33594 41.8051 10.7169 40.5253C11.7685 36.2099 13.0978 32.0431 14.3082 29.4439C15.0721 27.7971 16.0542 27.1523 17.7407 27.1523C18.1871 27.1523 18.8022 27.2614 19.1197 27.3606C17.582 30.694 16.2427 34.4241 15.1514 38.3527C17.324 37.3805 19.6058 36.4876 21.9868 35.694C23.078 31.9241 24.2288 28.6205 25.2606 26.6265C25.8756 25.4261 26.828 24.7911 28.2566 24.7911C28.9114 24.7911 29.6455 24.8904 30.0522 25.0491C28.7725 27.9162 27.6117 31.061 26.58 34.3447C30.8161 33.2634 35.33 32.5392 40.2011 32.311V22.6781H0.121637V62.6583L0.101807 62.6682Z" fill="#6A6D6F"/>
<path d="M41.3618 22.688V62.6781H81.4412V22.688H41.3618ZM75.1118 34.94C75.2507 34.3051 75.2904 33.8884 75.2904 33.5908H76.0344L76.1237 34.0174C76.3817 33.7396 76.7785 33.5214 77.2448 33.5214C77.9888 33.5214 78.5146 33.9479 78.3063 34.9301L77.8202 37.2217H77.6912C76.8083 37.2217 77.0265 36.3785 77.0662 36.2197L77.3241 34.9697C77.4332 34.4539 77.2547 34.2356 76.9174 34.2356C76.2329 34.2356 76.0642 35.0888 75.9749 35.5452L75.6277 37.1622H74.6555L75.1217 34.94H75.1118ZM71.3321 33.5908H72.0761L72.1654 34.0174C72.4233 33.7396 72.8202 33.5214 73.2864 33.5214C74.0305 33.5214 74.5563 33.9479 74.3479 34.9301L73.8618 37.2217H73.7328C72.8499 37.2217 73.0682 36.3785 73.1078 36.2197L73.3658 34.9697C73.4749 34.4539 73.2963 34.2356 72.959 34.2356C72.2745 34.2356 72.1059 35.0888 72.0166 35.5452L71.6694 37.1622H70.6971L71.1634 34.94C71.3023 34.3051 71.342 33.8884 71.342 33.5908H71.3321ZM69.0503 36.2594L70.0424 31.5273H71.0146L69.8142 37.2614H69.6852C68.8023 37.2614 69.0206 36.4181 69.0602 36.2594H69.0503ZM64.3678 35.6543L64.8043 33.6205H65.7765L65.34 35.6841C65.3003 35.8626 65.1118 36.5372 65.7269 36.5372C66.4214 36.5372 66.5801 35.684 66.6694 35.2376L67.0166 33.6205H67.9888L67.3241 36.7356C67.1952 37.3606 67.0166 37.807 66.7289 38.1245C66.3717 38.5213 65.8162 38.7594 65.1217 38.7594C64.2983 38.7594 63.6832 38.3924 63.6832 37.7674C63.6832 37.3507 63.9511 37.0531 64.5166 36.9142C64.3678 36.7555 64.2686 36.5372 64.2686 36.2693C64.2686 36.0808 64.3182 35.8626 64.3579 35.6543H64.3678ZM62.6317 33.5511C63.088 33.5511 63.5245 33.68 63.8916 33.9082L63.1773 37.2317H63.0483C62.7507 37.2317 62.5027 37.1027 62.4332 36.8448C62.2249 37.0928 61.8479 37.2614 61.4015 37.2614C60.6674 37.2614 60.211 36.7753 60.211 35.9817C60.211 34.6325 61.2824 33.5511 62.6317 33.5511ZM58.7527 33.5511C58.8916 33.5511 59.0404 33.571 59.1297 33.5908L59.5364 31.6959H60.5186L59.3281 37.2416H59.1991C58.9015 37.2416 58.6535 37.1126 58.584 36.8547C58.3757 37.1027 57.9987 37.2713 57.5622 37.2713C56.8182 37.2713 56.332 36.7753 56.332 35.9916C56.332 34.7118 57.334 33.561 58.7527 33.561V33.5511ZM56.0146 32.1027C56.2626 32.1027 56.461 32.2812 56.461 32.5392C56.461 32.8864 56.1237 33.194 55.7864 33.194C55.5384 33.194 55.3499 33.0154 55.3499 32.7575C55.3499 32.4102 55.6872 32.1027 56.0245 32.1027H56.0146ZM54.6455 36.2594L55.211 33.6205H56.1832L55.4094 37.2614H55.2805C54.3975 37.2614 54.6158 36.4181 54.6554 36.2594H54.6455ZM52.7408 36.2594L53.5642 32.3507H54.5364L53.5047 37.2614H53.3757C52.4928 37.2614 52.711 36.4181 52.7507 36.2594H52.7408ZM51.1138 33.5511C51.9372 33.5511 52.5225 33.9876 52.5225 34.8507C52.5225 35.6245 52.2051 36.3587 51.6594 36.8051C51.3122 37.0928 50.8558 37.2614 50.34 37.2614C49.5166 37.2614 48.9312 36.8249 48.9312 35.9618C48.9312 35.188 49.2487 34.4539 49.7943 34.0174C50.1416 33.7297 50.5979 33.561 51.1138 33.561V33.5511ZM44.1296 35.0789C44.1594 34.9797 44.2487 34.7813 44.5165 34.6424C44.6852 34.5531 44.834 34.4836 44.9729 34.4241L45.588 31.5074H46.5602L46.0344 34.0273C46.5701 33.8785 47.1257 33.7495 47.8598 33.6106L48.2963 31.5074H49.2685L48.0681 37.2416H47.9392C47.0562 37.2416 47.2745 36.3983 47.3142 36.2396L47.6812 34.4638V34.4142C46.9669 34.5531 46.4114 34.6821 45.8658 34.8309L45.3598 37.2416H45.2209C44.338 37.2416 44.5562 36.3983 44.5959 36.2396L44.834 35.1086C44.6058 35.188 44.3777 35.2773 44.1396 35.3765C44.1098 35.2773 44.1098 35.1582 44.1396 35.0888L44.1296 35.0789ZM48.2269 47.4201H45.3102C44.1693 47.4201 44.4471 46.3289 44.4967 46.1205L45.8757 39.4539H50.5185C50.5086 39.5432 50.4888 39.6325 50.459 39.7218C50.2705 40.2277 49.963 40.3369 49.4471 40.3468H46.957L46.4312 42.7971H49.1495C49.1396 42.8864 49.1197 42.9757 49.09 43.0551C48.9015 43.561 48.6039 43.6702 48.0979 43.6702H46.2427L45.6574 46.5372H49.2884C49.2785 46.6265 49.2586 46.7257 49.2289 46.8051C49.0404 47.311 48.7328 47.4301 48.217 47.4301L48.2269 47.4201ZM54.0305 47.5194C53.6733 47.5194 53.3856 47.4102 53.1673 47.2019C52.9987 47.0333 52.8797 46.815 52.7209 46.4479L52.1951 45.2277L50.3796 47.4103H49.2785L51.8578 44.4142L50.6177 41.5273H51.8677L52.7804 43.6702L54.4967 41.5273H55.5979L53.1277 44.4737L53.9213 46.319C53.9213 46.319 53.9412 46.3686 53.9511 46.3884L54.4174 47.4698C54.2983 47.4996 54.1693 47.5194 54.0404 47.5194H54.0305ZM57.0463 47.5194C56.7685 47.5194 56.3916 47.4698 56.1336 47.4003L55.6178 49.811H55.459C54.3777 49.811 54.6455 48.7793 54.6852 48.5809L55.7368 43.6206L56.1336 41.7257C57.7209 41.3785 58.4154 41.4182 58.4154 41.4182C59.7448 41.4182 60.6376 42.0729 60.6376 43.4717C60.6376 45.5848 59.2189 47.5194 57.0166 47.5194H57.0463ZM62.4035 44.8507L62.1059 46.2198L61.8479 47.44H61.6892C60.6078 47.44 60.8757 46.4083 60.9154 46.2098L61.0245 45.7039L61.7289 42.3904C61.8182 41.7952 61.8082 41.5273 61.8082 41.5273H62.6912V42.44C63.0285 41.8547 63.5642 41.4182 64.3182 41.4182C64.4372 41.4182 64.6456 41.438 64.7348 41.4677L64.5166 42.4499C64.4571 42.44 64.2686 42.4102 64.1396 42.4102C63.7229 42.4102 63.4352 42.5392 63.2071 42.7773C62.7705 43.2138 62.592 43.9975 62.4035 44.8507ZM66.5701 46.686C67.2348 46.686 68.0483 46.3785 68.5344 46.0709L68.3559 46.9638C67.8301 47.2912 67.0066 47.5194 66.2626 47.5194C64.9332 47.5194 63.9809 46.7455 63.9809 45.3864C63.9809 43.4717 65.4987 41.4182 67.5225 41.4182C68.4848 41.4182 69.3578 41.9043 69.3578 42.946C69.3578 44.1464 68.2071 45.1384 66.4313 45.1384C66.0642 45.1384 65.5583 45.0789 65.2309 44.9797C65.221 45.069 65.211 45.2178 65.211 45.3269C65.211 46.1801 65.7071 46.6761 66.5801 46.6761L66.5701 46.686ZM70.9451 47.5194C70.3102 47.5194 69.596 47.3706 69.0702 47.0432L69.2587 46.19C69.7448 46.5372 70.4094 46.696 71.0047 46.696C71.8678 46.696 72.3539 46.309 72.3539 45.813C72.3539 45.3765 72.0067 45.1682 71.2031 44.8111C70.4987 44.4936 69.844 44.0868 69.844 43.2337C69.844 42.1523 70.9055 41.4182 72.3539 41.4182C72.8797 41.4182 73.5444 41.567 73.9114 41.7456L73.7428 42.5591C73.3658 42.3606 72.7805 42.2217 72.2944 42.2217C71.4908 42.2217 70.9848 42.5988 70.9848 43.0749C70.9848 43.4619 71.3817 43.7099 72.0166 43.9976C72.9392 44.4341 73.5146 44.821 73.5146 45.6444C73.5146 46.8348 72.4432 47.5194 70.965 47.5194H70.9451ZM78.2269 42.5591C77.8499 42.3606 77.2646 42.2217 76.7785 42.2217C75.9749 42.2217 75.469 42.5988 75.469 43.0749C75.469 43.4619 75.8658 43.7099 76.5007 43.9976C77.4233 44.4341 77.9987 44.821 77.9987 45.6444C77.9987 46.8348 76.9273 47.5194 75.4392 47.5194C74.8043 47.5194 74.09 47.3706 73.5642 47.0432L73.7527 46.19C74.2388 46.5372 74.9035 46.696 75.5087 46.696C76.3718 46.696 76.8578 46.309 76.8578 45.813C76.8578 45.3765 76.5007 45.1682 75.7071 44.8111C75.0027 44.4936 74.3479 44.0868 74.3479 43.2337C74.3479 42.1523 75.4095 41.4182 76.8479 41.4182C77.3737 41.4182 78.0384 41.567 78.4055 41.7456L78.2368 42.5591H78.2269Z" fill="#6A6D6F"/>
</g>
<defs>
<clipPath id="clip0_20_3933">
<rect width="81.3394" height="85" fill="white" transform="translate(0.101807 0.678101)"/>
</clipPath>
</defs>
</svg>
